<svg width="328" height="328" viewBox="0 0 328 328" xmlns="http://www.w3.org/2000/svg" xmlns:xlink="http://www.w3.org/1999/xlink">
    <defs>
        <path id="dyqwpgacqa" d="M0 0h328v328H0z"/>
    </defs>
    <g fill="none" fill-rule="evenodd">
        <mask id="jn40i8wesb" fill="#fff">
            <use xlink:href="#dyqwpgacqa"/>
        </mask>
        <g mask="url(#jn40i8wesb)">
            <g transform="translate(43.733 25.511)">
                <circle fill="#FF8784" cx="167.064" cy="19.133" r="19.133"/>
                <path d="M171.622 2.565c-.526.138-.957.479-.957.757 0 .279-.379.507-.841.507-1.355 0-6.983 5.97-9.54 10.12-3.104 5.035-5.404 7.931-6.3 7.931-1.106 0-1.52-3.8-.842-7.726.594-3.441 1.041-4.781 2.574-7.72.682-1.31.68-1.458-.025-1.188-.944.362-2.53 3.487-2.53 4.983 0 .572-.291 1.33-.647 1.686-.406.406-.647 2.577-.647 5.853 0 2.863-.087 5.206-.193 5.206-.106 0-.8-.398-1.541-.883-1.072-.703-1.347-.73-1.344-.137.004.737 2.343 2.114 3.591 2.114.354 0 .797.77.986 1.71.498 2.494.45 2.666-.752 2.666-.602 0-1.094.203-1.094.452 0 .25.688.352 1.53.228 1.307-.192 1.685.072 2.598 1.813.8 1.526.895 2.099.381 2.28-.378.134-.541.48-.362.77.202.326.615.287 1.082-.1.582-.483.962-.424 1.64.255 1.646 1.646 4.444 3.601 5.153 3.601.388 0-.004-.55-.872-1.22-.868-.672-1.66-1.41-1.76-1.642-.1-.23-.552-.42-1.003-.42-.452 0-.717-.308-.592-.684.172-.51 2.512-.684 9.209-.684 8.475 0 9.093-.071 11.03-1.284 3.744-2.346 1.995.117-2.599 3.658-.3.232-1.33.768-2.286 1.192-1.31.58-1.825 1.228-2.087 2.63-.192 1.023-.64 2.21-.997 2.637-.355.428-.896 1.077-1.202 1.443-.305.365-1.407 1.772-2.447 3.126-1.04 1.354-2.022 2.585-2.18 2.735-.754.717-3.843 4.9-3.843 5.204 0 .189-.377.72-.836 1.18-.658.657-1.004.696-1.623.182-.433-.36-3.576-.899-6.985-1.199-8.544-.753-9.8-.355-15.08 4.773-2.294 2.228-4.82 4.192-5.615 4.367-.883.194-1.82 1.014-2.408 2.106-.945 1.755-.942 2.526.03 7.28.275 1.34.092 2.024-.794 2.975-.686.736-1.15 1.962-1.15 3.033 0 1.437-.324 1.964-1.614 2.631-.888.46-2.022.835-2.52.835-2.37 0-8.117 3.531-12.02 7.384-2.245 2.215-4.574 4.184-5.177 4.376-.603.19-1.097.577-1.097.858 0 .28-.27.51-.6.51-.331 0-1.378.34-2.325.755-.948.416-2.709 1.171-3.912 1.679-1.203.507-2.68 1.136-3.282 1.398-.602.261-1.71.65-2.462.863-.752.213-2.286.967-3.407 1.675-1.123.709-2.174 1.288-2.336 1.288-.163 0-1.213.567-2.336 1.26-2.198 1.36-5.203 2.352-9.64 3.183l-5.542 1.037c-3.91.73-9.316 3.029-12.971 5.514-1.727 1.173-3.497 2.134-3.934 2.134-.436 0-.946.246-1.132.547-.186.3-.754.549-1.263.55-.509.002-1.54.322-2.293.712-.752.39-3.952 1.519-7.11 2.51-3.16.992-6.237 1.994-6.838 2.23-2.448.953-7.29 2.203-8.527 2.2-1.327-.004-1.993-.291-6.516-2.813-3.658-2.04-9.846-3.407-9.846-2.175 0 .263.771.852 1.714 1.309 1.697.822 1.703.836.51 1.475-.798.427-2.38.519-4.68.273-1.91-.205-3.752-.2-4.091.009-.962.594.419 1.925 1.997 1.925.749 0 1.184.24.995.547-.186.3-1.431.547-2.768.547-1.794 0-2.429.214-2.429.82 0 .5.51.82 1.305.82.718 0 2.01.369 2.872.818l1.567.817-2.325.004c-2.947.004-3.03.971-.125 1.436 2.352.376 3.534 1.302 1.661 1.302-.619 0-1.126.343-1.126.762 0 .56 1.126.845 4.24 1.071 2.33.17 5.196.473 6.367.674 1.17.201 3.386.104 4.923-.217 6.42-1.337 10.843-1.924 17.564-2.327 11.174-.67 20.993-1.52 25.162-2.178 4.547-.716 10.173-2.107 10.94-2.705.3-.234 1.618-.603 2.927-.82 1.31-.215 5.076-1.746 8.37-3.4 5.753-2.89 8.822-4.007 14.138-5.146 1.354-.29 2.89-.764 3.412-1.052.522-.289 1.383-.533 1.914-.543.53-.009 1.443-.378 2.027-.82.584-.442 1.63-.803 2.324-.803 1.102 0 1.263.27 1.263 2.111 0 3.651-1.644 18.688-2.15 19.66-1.471 2.832-1.78 6.705-1.993 24.939-.124 10.692-.456 19.688-.75 20.297-1.694 3.514-2.218 5.701-2.218 9.267 0 2.165-.373 5.194-.83 6.73-1.293 4.357-.301 18.23 1.436 20.078.269.286.488 2.424.488 4.75 0 2.328.284 4.925.63 5.772.918 2.246 2.177 13.525 2.476 22.189l.259 7.52h1.578c1.393 0 1.652.273 2.207 2.326.346 1.278.829 2.817 1.073 3.418.244.602.604 1.825.8 2.717.414 1.883 3.751 6.628 5.211 7.41 1.08.577 10.822.119 11.749-.554.3-.218 1.224-.558 2.051-.756.827-.197 1.504-.6 1.504-.896 0-.295.285-.536.633-.536.348 0 1.618-1.006 2.823-2.236 1.844-1.88 2.269-2.097 2.68-1.364.267.48 1.05 1.527 1.74 2.328 1.123 1.306 1.645 1.462 5.03 1.501 3.54.042 4.019-.105 7.607-2.333 4.846-3.01 10.432-8.778 13.678-14.123 1.385-2.284 2.814-4.468 3.173-4.855.36-.387 1.268-1.513 2.02-2.503 3.775-4.965 6.847-7.492 13.783-11.337 2.815-1.56 3.566-1.727 7.795-1.727 2.754 0 4.679-.225 4.679-.547 0-.301.377-.547.838-.547.462 0 2.123-.656 3.692-1.457 3.538-1.807 6.423-2.53 9.965-2.5 4.25.038 6.949.704 8.91 2.2 1.15.877 2.765 1.468 4.461 1.63 3.115.3 3.193.205 4.68-5.654 1.496-5.9 1.033-7.355-3.858-12.12-2.232-2.175-4.676-4.11-5.433-4.3-.756-.19-1.375-.519-1.375-.732 0-.213-1.6-.705-3.556-1.094-2.317-.46-3.555-.97-3.555-1.462 0-1.005 1.704-2.955 2.583-2.955.384 0 .699-.246.699-.547 0-.301.332-.547.739-.547.406 0 1.894-.614 3.306-1.365 1.412-.75 3.546-1.522 4.743-1.713 1.197-.191 2.308-.562 2.47-.823.16-.261 2.08-.475 4.265-.475 3.59 0 4.139-.15 5.711-1.553.957-.854 1.74-2.092 1.74-2.75 0-1.734-3.023-4.789-6.352-6.417-2.432-1.19-3.724-1.428-8.249-1.516-2.95-.058-5.62-.264-5.93-.458-.311-.194-7.203-.417-15.316-.495-16.008-.156-16.868-.019-17.485 2.791-.168.767-.049 3.212.267 5.434.315 2.221.446 4.437.292 4.922-.154.486-1.135 1.344-2.18 1.907-1.478.795-2.102 1.641-2.821 3.818-1.083 3.278-1.818 4.49-4.352 7.177-1.03 1.092-2.022 2.583-2.205 3.314-.184.731-.554 1.33-.822 1.33-.268 0-.496.308-.507.684-.028.97-2.076 3.239-4.609 5.104-1.191.878-3.689 3.135-5.55 5.015-2.016 2.037-3.849 3.419-4.534 3.419-.998 0-1.16-.344-1.218-2.598-.304-11.597-.488-13.984-1.137-14.766-.908-1.094-.955-8.428-.062-9.505 1.102-1.327 2.47-6.029 2.11-7.252-.187-.638-.561-4.253-.83-8.034-.44-6.151-1.052-8.94-2.335-10.63-1.057-1.394-5.149-7.313-5.883-8.51-.66-1.075-.785-3.034-.643-10.024.097-4.778.372-9.085.611-9.572.24-.487.96-1.993 1.599-3.347 1.142-2.421 2.265-4.385 2.813-4.923 1.04-1.02 3.366-5.23 3.636-6.577.179-.896.54-1.628.804-1.628.263 0 .479-.484.479-1.075 0-.592.403-2.007.896-3.146 3.173-7.328 3.754-10.108 3.745-17.933-.006-5.05-.244-7.665-.82-9.025-.594-1.398-.813-4.056-.813-9.859 0-7.6.056-8.002 1.291-9.299 4.182-4.387 7.159-9.752 7.18-12.94.004-.655.315-1.527.691-1.939 1.13-1.235 4.32-7.24 6.475-12.185 1.78-4.085 4.306-9.63 5.233-11.487.45-.902.96-2.94 1.13-4.528.17-1.589.521-3.018.779-3.178.673-.416.598-12.806-.078-12.806-.301 0-.551.554-.556 1.23-.005.677-.189 1.486-.41 1.797-.793 1.114-5.992 4.084-7.15 4.084-.651 0-1.183.265-1.183.589 0 .577-1.866.524-12.445-.35-3.012-.25-3.965-.162-3.965.365 0 .382-.739-.013-1.641-.878-1.898-1.817-2.114-3.008-.547-3.008.601 0 1.094-.246 1.094-.547 0-.3.462-.547 1.027-.547.993 0 3.404-.861 6.987-2.495.948-.433 1.994-.787 2.324-.787.331 0 .602-.246.602-.547 0-.3.35-.547.776-.547.976 0 4.138-1.774 4.143-2.325.002-.226.345-.41.764-.41 1.322 0 10.135-6.791 9.56-7.366-.252-.252-2.268 1.147-4.31 2.99-1.073.968-2.674 2.045-3.822 2.57-.452.208-1.146.699-1.544 1.092-.397.392-1.074.714-1.504.714-.43 0-.781.192-.781.427 0 .234-1.231.904-2.735 1.487-1.505.584-2.735 1.234-2.735 1.445 0 .21-.793.557-1.76.77-.968.212-2.137.57-2.598.797-4.89 2.394-6.89 2.701-8.01 1.228-1.187-1.565-.873-2.806 1.16-4.592 1.057-.928 2.715-3.013 3.684-4.633.97-1.62 1.95-2.946 2.182-2.946.23 0 .419-.331.419-.737 0-.405.503-1.328 1.118-2.051 3.826-4.497 5.243-5.956 5.79-5.96.338-.002.922-.373 1.297-.825.374-.45 1.113-.82 1.64-.82.528 0 1.267-.37 1.642-.82.727-.877.292-.985-1.778-.444z" fill="#FFF" opacity=".5"/>
            </g>
        </g>
    </g>
</svg>
