<svg width="107" height="18" viewBox="0 0 107 18" xmlns="http://www.w3.org/2000/svg">
    <path d="M40.351 5.139c1.573 0 3.224 1.12 3.718 2.204V5.39h3.218v11.28h-3.218v-1.945c-.672 1.342-2.288 2.178-4.02 2.178-3.12 0-5.296-2.48-5.296-5.637 0-3.158 1.915-6.126 5.598-6.126zM32.231.33c.719 0 1.956.069 2.52.226.34.076.377.262.34.714l-.157 1.954a32.834 32.834 0 0 0-1.994-.075c-1.653 0-1.997.639-1.997 1.354v1.282h2.408v2.362c0 .376-.104.427-.405.427h-2v8.097h-3.15V8.575H26.03V5.78h1.767V4.353C27.797.819 30.277.33 32.23.33zm8.612 7.556c-1.503 0-2.782 1.277-2.782 3.157 0 1.841 1.166 3.232 2.782 3.232l-.002-.001.172-.004c1.478-.087 2.634-1.284 2.719-2.99l.005-.2c0-1.991-1.277-3.194-2.894-3.194zM18.855 5.214c-3.532 0-6.05 2.743-6.05 6.088 0 3.572 2.858 5.901 6.014 5.901 3.345 0 6.088-2.405 6.088-5.975 0-3.38-2.48-6.014-6.052-6.014zm-.036 9.134c-1.617 0-2.781-1.315-2.781-3.15 0-1.877 1.279-3.081 2.78-3.081 1.617 0 2.894 1.127 2.894 3.12 0 1.873-1.277 3.111-2.895 3.111h.002zM4.014 5.214c0-.978 1.014-1.542 2.142-1.542 1.513.015 2.985.501 4.21 1.391l.902-1.954c.189-.45.157-.489-.225-.788A8.346 8.346 0 0 0 6.193.746C2.964.746.48 2.513.48 5.22c0 4.81 7.48 4.472 7.48 7.028 0 1.09-.826 1.767-2.105 1.767-1.953 0-4.472-1.691-4.472-1.691-.226.412-.753 1.502-.903 2.253-.074.301.076.452.301.64 1.202.976 3.008 1.878 5.04 1.878 3.72 0 5.6-2.33 5.6-4.924-.005-4.658-7.407-4.509-7.407-6.956zm97.008-.07c-2.97 0-5.827 2.254-5.827 5.9 0 2.706 1.652 6.126 6.314 6.126 1.541 0 3.231-.376 3.907-.753.376-.187.376-.414.338-.826a9.368 9.368 0 0 0-.3-1.391c-1.504.225-2.18.381-3.308.381-2.103 0-3.231-.808-3.607-2.362h6.99c.416 0 .528-.117.603-.493a5.59 5.59 0 0 0 .158-1.205c-.013-2.894-1.96-5.378-5.268-5.378zm-2.52 4.988c.074-.954.945-2.631 2.744-2.631 1.464 0 2.104 1.393 2.064 2.631h-4.808zm-3.989-4.84a4.37 4.37 0 0 0-.667-.037c-1.616 0-3.276 1.165-3.525 2.52v-2.38h-3.288v11.28h3.28v-2.697c0-.945.029-2.556.218-3.347.412-1.69 1.8-1.878 3.527-1.878l.788-2.668c.157-.49.156-.713-.333-.792zm-15.26-.078c-3.532 0-6.05 2.743-6.05 6.088 0 3.572 2.858 5.901 6.014 5.901 3.345 0 6.09-2.405 6.09-5.975-.001-3.38-2.482-6.014-6.053-6.014zm.038 9.134c-1.615 0-2.78-1.315-2.78-3.15 0-1.877 1.276-3.081 2.78-3.081 1.616 0 2.895 1.127 2.895 3.12-.002 1.873-1.28 3.111-2.896 3.111h.001zM53.208 5.214c0-.978 1.016-1.542 2.143-1.542a7.282 7.282 0 0 1 4.208 1.391l.902-1.954c.188-.45.15-.489-.226-.788a8.346 8.346 0 0 0-4.85-1.575c-3.23 0-5.711 1.767-5.711 4.473 0 4.81 7.477 4.472 7.477 7.028 0 1.09-.825 1.767-2.105 1.767-1.953 0-4.471-1.691-4.471-1.691-.225.412-.753 1.502-.901 2.253-.076.301.074.452.3.64 1.202.976 3.007 1.878 5.039 1.878 3.72 0 5.598-2.33 5.598-4.924 0-4.658-7.403-4.509-7.403-6.956zm18.153 8.31c-.415.158-1.39.753-2.933.753-1.691 0-2.97-1.353-2.97-3.195 0-1.575 1.166-2.969 2.82-2.969 1.051 0 1.842.263 2.894.827a8.444 8.444 0 0 0 .75-1.767c.114-.375.114-.526-.187-.751-.263-.225-1.954-1.277-3.796-1.277-3.72 0-5.975 2.855-5.975 6.012 0 3.158 2.48 5.985 6.351 5.985 1.466 0 2.894-.602 3.381-.978.413-.301.375-.413.263-.865-.154-.606-.354-1.2-.598-1.775z" fill="#1C1F22" fill-rule="evenodd"/>
</svg>
