<svg width="48" height="48" viewBox="0 0 48 48" xmlns="http://www.w3.org/2000/svg">
    <path d="M40.104 17.32c-.244.188-4.545 2.612-4.545 8.001 0 6.233 5.473 8.439 5.637 8.493-.026.135-.87 3.02-2.886 5.96-1.798 2.588-3.675 5.171-6.532 5.171-2.856 0-3.591-1.659-6.888-1.659-3.214 0-4.356 1.714-6.969 1.714-2.613 0-4.436-2.394-6.532-5.335C8.962 36.213 7 30.85 7 25.758c0-8.166 5.31-12.496 10.535-12.496 2.776 0 5.09 1.823 6.834 1.823 1.659 0 4.246-1.933 7.405-1.933 1.197 0 5.498.11 8.33 4.167zm-9.83-7.625c1.307-1.55 2.231-3.7 2.231-5.85 0-.299-.025-.601-.08-.845-2.125.08-4.654 1.416-6.179 3.184-1.197 1.36-2.314 3.511-2.314 5.691 0 .328.054.656.08.76.134.026.353.055.571.055 1.907 0 4.305-1.277 5.692-2.995z" fill="#1C1F22" fill-rule="nonzero"/>
</svg>
