<svg width="328" height="328" viewBox="0 0 328 328" xmlns="http://www.w3.org/2000/svg" xmlns:xlink="http://www.w3.org/1999/xlink">
    <defs>
        <path id="rgmos7seta" d="M0 0h328v328H0z"/>
    </defs>
    <g transform="matrix(-1 0 0 1 328 0)" fill="none" fill-rule="evenodd">
        <mask id="4fq9n8nd9b" fill="#fff">
            <use xlink:href="#rgmos7seta"/>
        </mask>
        <g mask="url(#4fq9n8nd9b)">
            <g transform="translate(54.667 14.578)">
                <circle fill="#FF8784" cx="90.2" cy="19.133" r="19.133"/>
                <path d="M90.356 3.88c2.558 2.447 2.821 2.898 2.237 3.834-.513.82-.515 1.23-.011 1.814.358.415 1.382 1.6 2.276 2.63 1.702 1.968 2.407 5.2.822 3.77-1.971-1.777-2.502-2.09-3.551-2.09-1.851 0-1.342 2.232.956 4.191 1.116.952 2.92 2.487 4.008 3.412 2.038 1.732 3.21 5.204 2.124 6.29-.542.542-4.376-1.195-4.376-1.983 0-.232-.273-.423-.605-.423-.333 0-1.626-.781-2.872-1.738-2.94-2.254-12.386-11.643-12.386-12.311 0-.283-.739-1.223-1.641-2.087-.903-.865-1.641-1.385-1.641-1.155 0 1.144 10.135 12.915 11.12 12.915.151 0 1.33.985 2.621 2.188 1.29 1.204 2.639 2.188 2.996 2.188.357 0 .791.37.965.82.172.452.691.821 1.152.821.46 0 .838.207.838.46 0 .252.656.758 1.458 1.123l1.46.665-1.124 1.124c-.965.964-1.52 1.07-3.92.74-1.539-.212-2.797-.608-2.797-.881s-1.03-.496-2.29-.496c-3.096 0-8.58-1.596-10.226-2.976-.738-.62-2.158-1.973-3.154-3.006-.997-1.034-1.971-1.722-2.165-1.528-.488.488 4.603 5.384 6.814 6.553.996.526 2.391.957 3.101.957s1.42.21 1.58.466c.158.257 1.924.62 3.923.806 4.25.397 5.81 1.27 4.276 2.391-.536.393-1.4.713-1.919.713-.519 0-1.035.276-1.148.613-.123.37-1.823.64-4.3.684-3.902.067-4.186-.013-5.985-1.69-2.237-2.086-3.113-1.639-1.83.934.504 1.01 1.23 4.563 1.614 7.896l1.263 10.982c.311 2.707.8 5.784 1.087 6.837.971 3.56 2.248 9.723 2.248 10.85 0 .615.246 1.272.547 1.458.3.186.547.706.547 1.156 0 1.416 2.053 5.397 3.561 6.905 2.044 2.044 7.857 4.092 13.943 4.913 5.94.8 10.98.795 19.06-.02 3.113-.315 5.99-.446 6.393-.29.403.154.972 1.307 1.264 2.56.292 1.254.964 3.633 1.493 5.288.778 2.435 1.001 5.557 1.172 16.373.196 12.421.142 13.405-.774 13.942-1.583.929-7.596 1.948-14.66 2.485-8.95.68-14.627 1.558-15.46 2.392-.384.383-.88 1.765-1.103 3.072-.223 1.307-.772 2.558-1.22 2.781-.448.224-1.8.84-3.003 1.368a113.19 113.19 0 0 0-3.138 1.428c-.522.256-1.39.466-1.93.466-.538 0-1.465.33-2.058.733-1.174.798-6.632 2.002-9.073 2.002-1.89 0-3.85 1.784-5.111 4.65-2.144 4.878-2.92 6.038-6.718 10.044-2.178 2.298-3.963 4.344-3.965 4.549-.004.204-.322.696-.707 1.094-1.234 1.273-5.195 7.857-8.384 13.938-3.448 6.576-8.933 15.677-9.617 15.958a.773.773 0 0 0-.444.657c0 .679-4.927 7.64-5.407 7.64-.22 0-.878-.363-1.463-.804-1.71-1.294-3.454-.984-5.337.947-2.51 2.575-4.272 3.334-6.751 2.909-3.853-.66-21.71-1.312-22.959-.838-.676.258-1.468.913-1.759 1.457-.595 1.113-.216 3.986.527 3.986.265 0 .483.34.483.754 0 1.495 4.282 5.122 8.526 7.222 4.036 1.999 4.69 2.153 9.682 2.28 5.71.147 6.546.451 10.15 3.69 3.143 2.825 7.65 4.556 9.957 3.824 1.403-.446 5.992-6.56 5.992-7.984 0-.569.246-1.034.547-1.034.301 0 .547-.44.547-.98 0-1.698 1.67-7.49 2.214-7.68.287-.101.521-.514.521-.919s.316-1.061.704-1.459c.386-.397 1.555-1.953 2.598-3.457 1.042-1.505 2.02-2.859 2.173-3.009.154-.15.994-1.381 1.867-2.735 1.637-2.537 9.006-10.363 9.775-10.383 1.603-.038 8.835-7.831 12.015-12.945 5.396-8.68 6.678-10.467 7.954-11.078.694-.332 4.126-.602 7.665-.602 6.164 0 6.446.051 7.415 1.342l1.008 1.342 10.637.026c8.504.02 10.967.196 12.278.875 1.08.558 3.922.96 8.314 1.175 3.86.19 6.837.579 7.06.924.214.329.539 1.953.722 3.61.455 4.087 1.2 5.88 3.585 8.63 1.114 1.285 2.188 3.199 2.386 4.255.198 1.057.901 2.836 1.563 3.956.872 1.474 1.203 2.92 1.203 5.244 0 3.002.106 3.266 1.641 4.102 3.88 2.114 5.6 3.876 5.956 6.104.208 1.301.784 2.446 1.435 2.853.598.373 1.088 1.024 1.088 1.446 0 .421.939 2.27 2.087 4.107 1.148 1.838 2.91 4.997 3.915 7.02 1.625 3.268 5.121 7.423 9.374 11.139 1.866 1.63 3.257 3.347 8.305 10.252 2.457 3.36 4.718 6.387 5.025 6.726.307.34.927 1.17 1.379 1.845.451.676 1.066 1.51 1.367 1.855 1.023 1.171 2.462 4.054 2.462 4.93 0 .48.203.873.45.873 1.139 0 2.795 12.29 1.791 13.293-1.72 1.72.418 7.765 4.193 11.853 2.09 2.259 2.616 3.982 3.293 10.776.34 3.402.79 5.305 1.403 5.918.497.498.904 1.083.904 1.307 0 .22.954.82 2.12 1.335 2.08.919 2.167.914 4.786-.454 4.682-2.44 7.315-8.085 7.315-15.682 0-4.124-.215-5.215-1.64-8.294-1.462-3.158-1.641-4.117-1.641-8.776 0-4.469-.188-5.57-1.29-7.569-1.403-2.544-5.812-5.903-9.228-7.03-2.335-.77-3.058-1.741-4.45-5.976-.543-1.655-1.184-3.5-1.424-4.102-.24-.602-1.103-2.94-1.918-5.197-2.131-5.898-6.306-14.265-7.925-15.884-1.258-1.257-6.77-4.902-7.414-4.902-.146 0-.758-.492-1.36-1.094-.966-.967-1.093-1.823-1.093-7.384 0-5.228.139-6.29.82-6.29.69 0 .837-1.367.92-8.616.148-12.773-.174-25.174-.742-28.58l-1.001-6.018c-.275-1.655-.735-4.981-1.022-7.393-.287-2.41-.77-4.995-1.071-5.743-.815-2.02-2.284-8.795-2.282-10.53.001-.83.298-1.984.66-2.564.515-.826.506-1.334-.042-2.358-.582-1.087-.494-2.76.526-10.016.783-5.562 1.359-13.16 1.594-21.019.228-7.648.638-13.136 1.082-14.495.494-1.516.723-5.888.746-14.222.03-11.295-.042-12.198-1.178-14.693-1.382-3.034-5.982-7.815-8.01-8.323-1.33-.335-1.36-.453-1.256-5.033.074-3.288-.095-4.757-.563-4.913-.367-.123-.668-.52-.668-.882 0-.78-4.413-5.109-7.044-6.91-2.728-1.869-9.036-2.207-12.032-.645-3.348 1.745-7.18 5.669-7.18 7.352 0 .782-.37 1.791-.82 2.242-.543.543-.821 1.906-.821 4.02 0 3.097-1.004 5.631-2.231 5.631-.472 0-4.74-2.577-5.427-3.277-.15-.153-3.966-2.124-8.479-4.38-4.513-2.257-8.287-4.288-8.387-4.514-.1-.226-.446-.41-.77-.41-1.043 0-4.223-2.747-5.065-4.377-.451-.872-.82-2.172-.82-2.89 0-.716-.172-1.474-.382-1.684-.648-.648-2.324-7.62-2.34-9.733-.013-2.002-2.247-7.022-3.637-8.176-.406-.337-1.13-.461-1.61-.278-.766.294-.721.586.367 2.386l1.241 2.052-1.196-1.042c-.657-.574-1.195-1.373-1.195-1.778s-.247-.736-.547-.736c-.301 0-.547-.352-.547-.781 0-1.008-1.494-2.5-2.5-2.5-1.408 0-.826 2.02 1.678 5.829 3.58 5.445 3.188 6.426-.9 2.252-1.849-1.888-4.003-4.415-4.786-5.615-1.866-2.86-4.071-5.015-5.635-5.505-.892-.28-.414.413 1.64 2.379zm9.695 14.859c-.46.745-1.883-.855-1.91-2.15-.014-.593.288-.5 1.142.354.638.639.984 1.447.768 1.796zm.45 12.932c.516 1.084 1.383 2.087 1.926 2.229.543.142 4.288 3.724 8.324 7.96 12.481 13.102 12.558 13.174 19.098 18.11 1.654 1.25 3.184 2.519 3.399 2.821.635.896-.702 1.648-4.765 2.682-2.104.535-3.95 1.158-4.102 1.383-.741 1.099-3.883 1.549-7.721 1.104-5.555-.643-11.273-.604-13.888.095-5.344 1.428-5.554 1.387-6.799-1.346-.623-1.368-1.132-2.75-1.132-3.071 0-.322-.235-1.012-.521-1.535-2.904-5.298-6.59-17.66-6.59-22.096 0-2.51-.077-2.648-1.472-2.648-1.412 0-1.43-.033-.41-.803.583-.442 1.676-.82 2.429-.839.752-.02 2.352-.511 3.555-1.093 3.034-1.465 3.825-1.36 5.134.684.646 1.01 1.142 1.409 1.147.925.005-.469-.352-1.33-.793-1.915-1.063-1.405-1.035-2.213.119-3.477 1.401-1.535 2.012-1.37 3.061.83z" fill="#FFF" opacity=".5"/>
            </g>
        </g>
    </g>
</svg>
