<svg width="16" height="36" viewBox="0 0 16 36" xmlns="http://www.w3.org/2000/svg">
    <g fill-rule="nonzero" fill="none">
        <path d="M3.736 0h8.528C14.334 0 16 1.652 16 3.705v28.59C16 34.348 14.334 36 12.264 36H3.736C1.666 36 0 34.348 0 32.295V3.705C0 1.652 1.666 0 3.736 0z" fill="#FFF"/>
        <path d="m10.122 6.678.012.121c.253.15.385.27.645.438.68.432 1.514 1.198 1.41 3.83.196.575.283 1.698.455 2.055.352.709.594 1.17.697 1.832 0 0 .104 1.036.236 1.111.703.161.501.23.6.357.109.138.518.133.518.513.144.19.253.38.328.587V3.833A2.83 2.83 0 0 0 12.195 1h-2.7c.431.155.679.34.823.628.345.029.754.806.115 1.963.282.196.063.484-.138.812-.064.104-.127.294-.317.283-.254.524-.547 1.019-.772 1.048-.063.08-.11.305-.011.409.328.15.725.345.927.535zM12.644 34.965l-.028.006c1.238-.754.472-2.182.236-3.023l.046-.144c.063-.115-.07-.386-.07-.386-.155-.127-.19-.83-.27-1.152-.132-.524.236-1.44.236-1.75 0-.312-.236-.738-.662-1.279-.104-.12-.415-2.776-.691-3.45-.386-.927-.501-.777-.962-1.888-.351-.778-.075-1.924-.87-4.584l.179-.167s-.634-2.315-.84-2.949c-.203-.633-.577-.674-.577-.674l.023-.328c.03-.098.772-2.027.835-2.09.006-.04 1.071-.772 1.089-.663.086.473.5 2.874.68 3.254.178.386.794 1.56 1.076 2.292a2.53 2.53 0 0 0-1.923 2.448 2.527 2.527 0 0 0 4.877.933l-.006 12.802a2.807 2.807 0 0 1-2.378 2.792z" fill="#C80F2E"/>
        <path d="M8.607 1c-.921.357-1.048.754-1.082 2.033-.156.017-.478-.133-.369.645 0 0 .058.518.265.432C7.26 5.238 7.388 5.52 6.638 5.6c-.161.018-.357.03-.599.04l-.075.104c-1.025.098-1.533.033-2.194.904-.253.334-.524.807-.858 1.48 0 0-.305.755-.398 1.066-.293.616-1.013 1.98-1.226 2.856-.07.3-.202.392-.012.824.283.622-.184.783 1.417.737v.368s-.426.369-.518.588c-.087.224-.334 1.324-.323 1.848.029 1.365 1.14 2.505 1.469 3.864l.743.104c.403.927 2.165 3.427 2.574 3.83l.017.017c.092.236.547.53.812.824.161.155.904.961 1.895 1.727.363.281.754.559 1.163.795-.011-.006.242.501.369.916-.507.408.478 1.157.777 2.395.017.167-.288.334.167.743-.029 1.872-.599 2.85.357 3.369H3.77A2.836 2.836 0 0 1 1 32.172V3.833A2.833 2.833 0 0 1 3.77 1h4.837z" fill="#1D4289"/>
    </g>
</svg>
