<svg width="328" height="328" viewBox="0 0 328 328" xmlns="http://www.w3.org/2000/svg" xmlns:xlink="http://www.w3.org/1999/xlink">
    <defs>
        <path id="znroqpmooa" d="M0 0h328v328H0z"/>
    </defs>
    <g fill="none" fill-rule="evenodd">
        <mask id="s225e30g7b" fill="#fff">
            <use xlink:href="#znroqpmooa"/>
        </mask>
        <g mask="url(#s225e30g7b)">
            <g transform="translate(58.311 36.444)">
                <circle fill="#FF8784" cx="27.183" cy="98.748" r="21.867"/>
                <path d="M119.196.985c-1.204.488-2.528 1.14-2.944 1.452-2.03 1.518-5.14 5.066-5.776 6.59-.429 1.024-.873 5.561-1.112 11.342l-.4 9.635 1.778 4.55c.977 2.502 2.48 6.057 3.338 7.899.858 1.842 1.56 3.721 1.56 4.176 0 .913-1.717 2.201-3.82 2.866-2.013.637-6.84 4.357-8.532 6.576-1.474 1.931-4.05 8.435-4.055 10.233-.002.52-.68 1.374-1.507 1.898-1.504.954-7.742 6.65-9.385 8.569-.479.56-1.146 1.31-1.483 1.666-.336.357-.797 1.252-1.024 1.99-.227.739-.629 1.614-.893 1.946-.638.801-29.88 1.012-30.832.222-.365-.303-2.854-.818-5.531-1.143-2.678-.326-5.915-.72-7.193-.877-1.499-.182-2.325-.069-2.325.319 0 .331.185.606.41.61.226.006 1.243.743 2.26 1.639 1.388 1.224 2.033 2.414 2.59 4.778.958 4.074.921 10.217-.08 12.994-.432 1.203-.791 2.513-.796 2.91-.004.398-.375 1.09-.823 1.538-.722.723-.972.647-2.188-.665-.755-.815-1.373-1.924-1.373-2.464s-.217-1.116-.484-1.28c-.266-.165-.65-1.404-.852-2.755-.202-1.35-.6-2.599-.883-2.774-.284-.175-.516-.788-.516-1.362 0-1.417-3.21-8.858-3.966-9.194-.225-.1-.41-.414-.41-.698 0-.704-3.205-4.18-5.102-5.535-1.143-.816-1.706-.944-2.16-.49-.455.455-.378.615.292.615 1.064 0 6.97 5.875 6.97 6.934 0 .398.227.724.504.724s.674.8.883 1.778c.21.978.555 2.024.768 2.325.214.3.844 2.146 1.4 4.102.558 1.956 1.194 3.802 1.415 4.103.221.3.577 1.484.792 2.63.23 1.232 1.144 2.883 2.236 4.042 1.803 1.911 2.286 2.9 1.42 2.9-.237 0-.866.738-1.4 1.641-1.037 1.758-2.028 2.054-3.2.957-.403-.376-1.67-1.163-2.816-1.749-1.146-.586-2.62-1.524-3.274-2.085-2.488-2.13-3.453-2.923-5.823-4.781-2.732-2.142-9.315-8.65-9.315-9.21 0-.2-.858-1.326-1.907-2.504-1.048-1.178-2.049-2.593-2.224-3.145-.341-1.076-1.339-1.39-1.339-.42 0 1.686 7.374 9.922 14.414 16.1 2.057 1.805 4.025 3.536 4.372 3.847.348.31 2.418 1.66 4.598 2.997 3.44 2.11 5.01 3.822 3.503 3.822-.255 0-1.027.488-1.715 1.086-1.245 1.08-3.283 1.052-4.71-.063-.33-.257-2.052-.708-3.83-1.002l-5.145-.847c-2.688-.44-7.812-2.076-8.548-2.73-.34-.3-1.17-.916-1.848-1.367-.676-.451-1.936-1.559-2.8-2.461-1.692-1.771-2.155-1.296-.604.619 1.268 1.564 7.424 5.671 8.5 5.671.473 0 1 .225 1.17.5.17.276 2.215.66 4.544.856 2.33.195 4.728.57 5.33.835.601.264 1.907.64 2.9.836 1.82.357 2.081 1.184.622 1.968-1.287.692-4.535 2.02-5.71 2.335-.602.162.123.176 1.611.033s2.844-.485 3.014-.76c.17-.275.983-.669 1.807-.875.825-.207 1.5-.634 1.5-.949 0-.315.45-.165 1 .333 1.442 1.305 2.724 1.207 1.527-.116-.877-.97-.827-1.106 1-2.71 1.73-1.52 2.091-1.63 3.602-1.103.923.321 1.83.433 2.015.248.185-.185.032-.337-.34-.337-.373 0-1.038-.36-1.478-.8-.701-.702-.647-1.036.45-2.728 1.085-1.675 1.536-1.93 3.442-1.935 1.596-.005 2.38-.305 2.876-1.101.794-1.27.039-1.485-.967-.273-.904 1.09-2.735 1.054-2.735-.055 0-.48.347-1.65.771-2.598 1.703-3.809 2.418-10.906 1.43-14.2-.35-1.169-.51-2.251-.355-2.406.297-.297 2.175 3.571 2.832 5.831.553 1.904 1.219 2.422 4.621 3.592 1.655.57 3.255 1.203 3.556 1.407.3.204 1.408.551 2.461.772 1.053.22 2.16.551 2.462.734 2.578 1.572 6.49 2.239 13.239 2.255 3.972.01 7.794.279 8.494.597 2.412 1.1 6.707-1.443 12.99-7.69 1.664-1.655 4.223-3.993 5.688-5.196 5.423-4.46 6.357-5.353 6.357-6.087 0-.413.185-.752.41-.754.227-.001 1.388-1.355 2.582-3.008C113.053 77.249 114 76.48 114 77.67c0 .303 1.847 3.501 4.103 7.107 2.256 3.606 4.102 6.704 4.102 6.886 0 .181-.479 1.002-1.064 1.824-2.264 3.18-3.677 10.354-2.218 11.256.765.472.702 1.58-.355 6.311-.878 3.93-1.018 4.165-2.967 4.998-2.242.957-5.791 5.26-6.322 7.663-.178.808-.973 2.062-1.767 2.789-4.542 4.157-12.58 13.398-13.903 15.981-.462.903-1.85 2.732-3.085 4.064-1.993 2.15-2.206 2.634-1.894 4.3.194 1.031.136 2.034-.13 2.226-.265.193-.936 1.213-1.49 2.266a253 253 0 0 1-1.915 3.554c-.907 1.643-4.637 5.6-7.217 7.658-.755.602-2.843 2.342-4.642 3.866-1.798 1.524-4.254 3.363-5.457 4.087-2.456 1.477-4.952 3.565-8.197 6.856-2.938 2.982-3.421 3.622-6.573 8.712-1.49 2.407-3.022 4.702-3.405 5.099-.383.398-.697.893-.697 1.1 0 .208-.858 1.36-1.907 2.56-1.05 1.2-2.05 2.612-2.225 3.139-.175.526-.547.957-.827.957-.281 0-.51.37-.51.82 0 .452-.191.821-.424.821-.232 0-.909.904-1.504 2.01-1.38 2.562-3.908 5.1-5.09 5.106-.502.004-2.022 1.274-3.376 2.825-2.987 3.42-5.25 5.662-7.909 7.836-1.103.903-2.605 2.558-3.336 3.678-1.389 2.125-7.473 6.41-9.13 6.431-.527.005-.958.235-.958.514 0 .28-.738.668-1.64.864-.903.197-1.642.558-1.642.805 0 .246-.566.585-1.258.76-2.188.547-5.672 4.256-6.45 6.86L0 244.671l2.547 2.302c3.467 3.14 12.15 8.468 13.8 8.468.936 0 1.76-.618 2.728-2.04.763-1.127 1.387-1.74 1.387-1.368 0 .432.872.673 2.443.673 1.974 0 2.567-.235 3.095-1.23.359-.68 1.078-1.532 1.598-1.904.52-.367 1.483-1.702 2.14-2.96.657-1.263 2.2-3.178 3.428-4.255 7.447-6.537 7.37-6.444 7.314-8.927-.052-2.357 1.387-4.934 4.386-7.852.648-.63 1.349-1.738 1.559-2.461.893-3.09 2.118-4.946 4.545-6.898 1.422-1.142 2.912-2.386 3.312-2.764.4-.378 1.246-.965 1.88-1.305.635-.34 1.415-.834 1.735-1.1 2.432-2.02 3.515-2.897 4.856-3.928a96.393 96.393 0 0 0 3.282-2.68c.958-.823 2.498-1.86 3.422-2.304 2.812-1.353 7.524-6.296 10.742-11.269 1.758-2.717 4.598-5.624 12.263-12.555 3.173-2.868 7.122-6.017 7.547-6.017.163 0 1.905-.985 3.87-2.188 3.007-1.84 4.045-2.188 6.524-2.188 3.594 0 7.35-1.795 11.123-5.315 3.57-3.332 7.503-5.839 11.071-7.058 1.655-.566 3.091-1.213 3.191-1.439.1-.226.64-.41 1.2-.41.56 0 1.698-.585 2.53-1.3 1.295-1.114 1.747-1.22 3.175-.743 1.825.61 3.58 1.934 3.58 2.701 0 .27.488 1.5 1.085 2.734.596 1.236 1.242 3.087 1.435 4.114.254 1.354.922 2.245 2.43 3.243 2.801 1.854 3.44 3.567 4.335 11.63.281 2.532.709 4.747.95 4.923.709.52 3.986 7.418 3.986 8.39 0 .49.214 1.024.475 1.186.26.161.603 1.436.76 2.833.364 3.227 2.082 4.917 5.52 5.433 2.012.301 2.973.144 4.74-.776 1.217-.635 2.782-1.155 3.477-1.155 1.742 0 5.268 3.113 5.268 4.652 0 .677.369 2.115.82 3.195.451 1.08.82 2.698.82 3.596 0 1.845 1.383 7.51 2.063 8.45.245.341.908 1.957 1.471 3.591 1.59 4.613 4.488 7.695 7.236 7.695 2.164 0 5.895-3.371 8.023-7.248 1.59-2.899 3.328-12.52 2.535-14.03a19.769 19.769 0 0 1-.78-1.696c-.174-.451-.767-1.559-1.316-2.462-1.719-2.825-2.747-7.438-3.037-13.621-.154-3.28-.537-6.222-.853-6.537-.315-.315-.572-.97-.572-1.454 0-1.211-3.187-4.37-4.41-4.37-.547 0-1.148-.246-1.334-.547-.461-.746-3.34-.69-4.586.087-.83.518-1.243.423-2.259-.524-1.102-1.027-1.203-1.494-.892-4.142.193-1.642.857-4.166 1.476-5.61.635-1.48.989-3.166.812-3.869-.267-1.066.41-3.07 1.351-3.993.568-.557 3.093-4.682 3.44-5.62.199-.535-.003-2.873-.448-5.197-1.048-5.474-1.044-8.12.012-8.526.663-.254.82-1.512.82-6.554 0-5.377.18-6.646 1.3-9.18.713-1.617 1.474-4.222 1.688-5.788.35-2.55.768-3.24 3.969-6.553 1.967-2.036 4.58-5.308 5.807-7.27 1.227-1.962 2.406-3.693 2.621-3.846.215-.154.562-.956.769-1.783.208-.828.597-1.64.864-1.805.268-.165.487-.89.487-1.611 0-.72.554-1.875 1.231-2.566 2.75-2.803 3.944-5.893 2.598-6.725-.301-.186-.547-.851-.547-1.477 0-2.964-3.768-8.113-8.743-11.949-1.349-1.04-2.843-2.26-3.322-2.711-2.302-2.173-4.808-4.228-6.666-5.47-1.127-.752-2.05-1.552-2.052-1.778-.002-.226-.373-.41-.824-.41-.451 0-.82-.23-.82-.51s-.555-.683-1.231-.894c-.677-.212-1.354-.553-1.504-.758-.15-.205-1.813-1.315-3.693-2.466-3.528-2.159-6.7-4.862-6.7-5.71 0-.73-6.081-6.565-7.216-6.925-.544-.173-.99-.544-.99-.825 0-.28-.328-.51-.73-.51-.4 0-2.083-.948-3.739-2.108-1.655-1.16-4.588-2.907-6.518-3.884-1.93-.977-3.97-2.019-4.532-2.315-.563-.296-2.41-.674-4.103-.839-1.693-.166-3.394-.551-3.78-.856-.484-.383-1.112-.337-2.015.146-3.607 1.93-4.263-2.718-1.288-9.123 1.275-2.747.689-4.542-1.484-4.542-1.334 0-1.349-.054-1.349-4.95 0-5.693-.511-7.03-3.837-10.035C130.35.155 124.29-1.077 119.196.985z" fill="#FFF" opacity=".5"/>
                <path d="M29.908 77.5c.533.138 1.271.129 1.641-.021.37-.15-.065-.263-.967-.252-.903.01-1.206.133-.674.272z" fill="#FFF" opacity=".5"/>
            </g>
        </g>
    </g>
</svg>
